<?xml version="1.0" encoding="UTF-8"?>
<svg version="1.1" xmlns="http://www.w3.org/2000/svg" width="512" height="512">
<path d="M0 0 C3.58598889 2.54054385 6.15992797 5.04327701 8.4921875 8.765625 C8.90210938 9.38695312 9.31203125 10.00828125 9.734375 10.6484375 C13.58244889 17.62804738 13.74273274 26.02607545 12.4921875 33.765625 C10.11029934 41.28161839 6.26846385 47.5582239 -0.5078125 51.765625 C-2.4878125 52.755625 -4.4678125 53.745625 -6.5078125 54.765625 C-6.8378125 66.975625 -7.1678125 79.185625 -7.5078125 91.765625 C-4.44113281 91.74467773 -1.37445313 91.72373047 1.78515625 91.70214844 C11.97102763 91.63556744 22.15690918 91.59156604 32.34294128 91.55837631 C38.51259978 91.53759186 44.68203338 91.50944271 50.8515625 91.46386719 C56.8168048 91.42008164 62.78183217 91.39641933 68.7472229 91.38611603 C71.01155984 91.37878298 73.27588637 91.36446508 75.54013062 91.34270477 C91.79339888 91.19286068 106.53928117 92.14103796 121.3671875 99.515625 C122.07278809 99.85706543 122.77838867 100.19850586 123.50537109 100.55029297 C129.49458017 103.55383252 134.51244105 107.28764008 139.4921875 111.765625 C140.08773438 112.22066406 140.68328125 112.67570312 141.296875 113.14453125 C156.87291595 125.16751216 164.99907013 144.9671381 168.4921875 163.765625 C168.4921875 164.755625 168.4921875 165.745625 168.4921875 166.765625 C175.64612484 166.87629504 182.79739487 166.90890315 189.95214844 166.88769531 C192.38484589 166.88963991 194.8175974 166.90934107 197.25 166.94726562 C200.75165732 166.99876059 204.24815596 166.98601771 207.75 166.9609375 C208.83459503 166.99067657 209.91919006 167.02041565 211.03665161 167.05105591 C214.1565404 166.99216336 216.56002591 166.84349192 219.4921875 165.765625 C221.58625482 163.38468822 222.88084188 161.12042526 224.20797729 158.24679565 C227.41517631 152.050296 234.21628075 149.08126355 240.4921875 146.765625 C251.04736412 145.35169168 259.64628536 146.49862223 268.4921875 152.765625 C270.97756972 154.878703 272.76322219 157.00615056 274.4921875 159.765625 C274.90210938 160.38695312 275.31203125 161.00828125 275.734375 161.6484375 C279.58244889 168.62804738 279.74273274 177.02607545 278.4921875 184.765625 C276.09120579 192.34186763 272.27912589 198.51322792 265.4921875 202.765625 C264.87085938 203.17554688 264.24953125 203.58546875 263.609375 204.0078125 C256.62976512 207.85588639 248.23173705 208.01617024 240.4921875 206.765625 C232.97619411 204.38373684 226.6995886 200.54190135 222.4921875 193.765625 C221.5021875 191.785625 220.5121875 189.805625 219.4921875 187.765625 C202.6621875 187.435625 185.8321875 187.105625 168.4921875 186.765625 C167.8321875 191.055625 167.1721875 195.345625 166.4921875 199.765625 C160.60203674 220.4142434 147.58326506 238.23256305 129.4921875 249.765625 C127.1171875 250.52734375 127.1171875 250.52734375 125.4921875 250.765625 C125.4921875 251.425625 125.4921875 252.085625 125.4921875 252.765625 C126.22695313 253.02859375 126.96171875 253.2915625 127.71875 253.5625 C132.22608263 255.51779359 135.70626801 258.68177377 139.4921875 261.765625 C140.37583984 262.42691406 140.37583984 262.42691406 141.27734375 263.1015625 C156.83112195 275.23571571 164.98512802 294.89210753 168.4921875 313.765625 C168.4921875 314.755625 168.4921875 315.745625 168.4921875 316.765625 C175.64612484 316.87629504 182.79739487 316.90890315 189.95214844 316.88769531 C192.38484589 316.88963991 194.8175974 316.90934107 197.25 316.94726562 C200.75165732 316.99876059 204.24815596 316.98601771 207.75 316.9609375 C208.83459503 316.99067657 209.91919006 317.02041565 211.03665161 317.05105591 C214.1565404 316.99216336 216.56002591 316.84349192 219.4921875 315.765625 C221.58625482 313.38468822 222.88084188 311.12042526 224.20797729 308.24679565 C227.41517631 302.050296 234.21628075 299.08126355 240.4921875 296.765625 C251.04736412 295.35169168 259.64628536 296.49862223 268.4921875 302.765625 C270.97756972 304.878703 272.76322219 307.00615056 274.4921875 309.765625 C274.90210938 310.38695312 275.31203125 311.00828125 275.734375 311.6484375 C279.58244889 318.62804738 279.74273274 327.02607545 278.4921875 334.765625 C276.09120579 342.34186763 272.27912589 348.51322792 265.4921875 352.765625 C264.87085938 353.17554688 264.24953125 353.58546875 263.609375 354.0078125 C256.62976512 357.85588639 248.23173705 358.01617024 240.4921875 356.765625 C232.97619411 354.38373684 226.6995886 350.54190135 222.4921875 343.765625 C221.0071875 340.795625 221.0071875 340.795625 219.4921875 337.765625 C202.6621875 337.435625 185.8321875 337.105625 168.4921875 336.765625 C168.1621875 339.075625 167.8321875 341.385625 167.4921875 343.765625 C164.90969248 346.72604612 163.3119993 348.36043253 159.4921875 349.2109375 C155.79999666 349.42072107 153.66132099 348.87358255 150.5546875 346.890625 C147.34485858 343.58352853 147.36536849 341.66641163 147.31640625 337.15625 C146.90046371 314.41591633 144.12838189 297.45908684 127.4921875 280.765625 C126.87730469 280.12753906 126.26242187 279.48945313 125.62890625 278.83203125 C110.75740585 264.53373643 90.75171285 262.63301969 71.17958641 262.62752533 C67.46664205 262.62315288 63.75386252 262.59208342 60.04101562 262.56640625 C55.34247381 262.53599802 50.64420635 262.51331836 45.94555664 262.51513672 C42.12115995 262.51592391 38.29756906 262.49258146 34.47338295 262.4532547 C33.02339615 262.44281515 31.57331619 262.44125569 30.123312 262.44890594 C28.0993588 262.45853339 26.07533057 262.43456432 24.05151367 262.40917969 C22.32803963 262.40371124 22.32803963 262.40371124 20.56974792 262.39813232 C16.55259035 261.57251682 15.04708315 259.90122614 12.4921875 256.765625 C11.828125 254.265625 11.828125 254.265625 11.8671875 251.765625 C11.85429687 250.940625 11.84140625 250.115625 11.828125 249.265625 C12.79363835 245.63075123 14.62701799 244.14999897 17.4921875 241.765625 C20.53610229 241.1398468 20.53610229 241.1398468 23.97216797 241.13793945 C25.911064 241.11815788 25.911064 241.11815788 27.88912964 241.09797668 C29.29587967 241.10806937 30.70262811 241.11838507 32.109375 241.12890625 C33.56846636 241.12085354 35.02754596 241.11032819 36.48660278 241.09745789 C40.33116649 241.068916 44.17519172 241.0683244 48.01983643 241.07531738 C54.13583859 241.0826326 60.25166422 241.05073675 66.36752701 241.01286888 C68.48041166 241.00417958 70.59289789 241.00925761 72.70578003 241.01643372 C94.32060388 241.00765989 112.94690306 236.90880066 129.1796875 221.703125 C142.0601145 208.23387848 147.13726596 192.32463026 146.96533203 173.88549805 C146.41186548 156.56498673 139.65401412 142.96931677 127.4921875 130.765625 C126.87730469 130.12753906 126.26242187 129.48945313 125.62890625 128.83203125 C111.91182763 115.6436623 93.15790404 112.68770036 74.91162109 112.56030273 C74.01283234 112.55040314 73.11404358 112.54050354 72.1880188 112.53030396 C69.25557979 112.49904412 66.32312466 112.47407404 63.390625 112.44921875 C61.34225067 112.42861844 59.2938803 112.40762122 57.24551392 112.38624573 C51.88298774 112.33134259 46.52042524 112.28179472 41.15783691 112.23339844 C35.67420258 112.1829499 30.19062026 112.12738635 24.70703125 112.07226562 C13.96879456 111.96507316 3.23051248 111.86354358 -7.5078125 111.765625 C-7.48162842 112.79969482 -7.45544434 113.83376465 -7.4284668 114.89916992 C-7.33774827 118.74741859 -7.28048591 122.5955734 -7.2331543 126.44458008 C-7.20805903 128.10815339 -7.17397454 129.77161696 -7.13061523 131.43481445 C-7.0697379 133.83051653 -7.04155481 136.22475751 -7.01953125 138.62109375 C-6.99372482 139.3608696 -6.9679184 140.10064545 -6.94132996 140.86283875 C-6.93923844 144.74149174 -7.37938423 146.59223139 -9.71025085 149.73918152 C-12.77111726 151.9563526 -14.04050018 152.37936337 -17.75708008 152.33325195 C-18.77776077 152.3328743 -19.79844147 152.33249664 -20.85005188 152.33210754 C-22.48468636 152.2933979 -22.48468636 152.2933979 -24.15234375 152.25390625 C-25.83972908 152.24329414 -25.83972908 152.24329414 -27.561203 152.23246765 C-31.14825399 152.20451644 -34.73373462 152.14177217 -38.3203125 152.078125 C-40.75453472 152.05304327 -43.18878145 152.03022989 -45.62304688 152.00976562 C-51.5851697 151.95468726 -57.5463789 151.87105205 -63.5078125 151.765625 C-63.48162842 152.49676514 -63.45544434 153.22790527 -63.4284668 153.98120117 C-63.32431106 157.30495582 -63.25942629 160.62836694 -63.1953125 163.953125 C-63.1324707 165.67885742 -63.1324707 165.67885742 -63.06835938 167.43945312 C-62.93020906 176.97182481 -62.93020906 176.97182481 -65.87109375 180.02490234 C-68.70531739 181.8960148 -70.14152707 182.44322321 -73.5078125 182.390625 C-74.3328125 182.40351563 -75.1578125 182.41640625 -76.0078125 182.4296875 C-79.73477371 181.43971343 -81.12793901 179.78370407 -83.5078125 176.765625 C-84.23432422 173.74131423 -84.20951212 170.80247601 -84.171875 167.703125 C-84.17665863 166.83421631 -84.18144226 165.96530762 -84.18637085 165.07006836 C-84.18976475 163.23777449 -84.18059794 161.40541965 -84.15966797 159.57324219 C-84.13289273 156.77401281 -84.15943053 153.97879267 -84.19140625 151.1796875 C-84.18810206 149.39582451 -84.18169563 147.61196401 -84.171875 145.828125 C-84.18199615 144.99466553 -84.19211731 144.16120605 -84.20254517 143.30249023 C-84.12312625 139.35032098 -83.75533214 137.1799347 -81.6940918 133.72973633 C-76.85365389 130.74595555 -72.43870278 131.14531267 -66.86328125 131.27734375 C-65.17589592 131.28795586 -65.17589592 131.28795586 -63.454422 131.29878235 C-59.86737101 131.32673356 -56.28189038 131.38947783 -52.6953125 131.453125 C-50.26109028 131.47820673 -47.82684355 131.50102011 -45.39257812 131.52148438 C-39.43038606 131.57656338 -33.46936537 131.66284506 -27.5078125 131.765625 C-27.5078125 125.165625 -27.5078125 118.565625 -27.5078125 111.765625 C-52.5878125 111.765625 -77.6678125 111.765625 -103.5078125 111.765625 C-103.5078125 141.465625 -103.5078125 171.165625 -103.5078125 201.765625 C-86.94844251 201.56792379 -86.94844251 201.56792379 -70.38989258 201.31518555 C-68.31072267 201.30057964 -66.23153847 201.28783922 -64.15234375 201.27734375 C-62.53894104 201.238974 -62.53894104 201.238974 -60.89294434 201.1998291 C-53.27308448 201.19537981 -53.27308448 201.19537981 -49.3215332 204.13989258 C-47.36344382 206.97462824 -46.82952615 208.35529872 -46.8828125 211.765625 C-46.86992187 212.590625 -46.85703125 213.415625 -46.84375 214.265625 C-47.86312741 218.10328114 -49.30976516 219.38258842 -52.5078125 221.765625 C-56.39174403 222.46606461 -60.21695002 222.34749731 -64.15234375 222.25390625 C-65.64864319 222.24635315 -65.64864319 222.24635315 -67.1751709 222.23864746 C-70.89051174 222.21254767 -74.6054419 222.1427404 -78.3203125 222.078125 C-90.788125 221.9234375 -90.788125 221.9234375 -103.5078125 221.765625 C-103.5078125 241.565625 -103.5078125 261.365625 -103.5078125 281.765625 C-96.9078125 281.765625 -90.3078125 281.765625 -83.5078125 281.765625 C-83.59482422 278.06279297 -83.59482422 278.06279297 -83.68359375 274.28515625 C-83.72262361 271.88569346 -83.75296263 269.48626647 -83.7824707 267.08666992 C-83.80756597 265.42309661 -83.84165046 263.75963304 -83.88500977 262.09643555 C-83.9458871 259.70073347 -83.97407019 257.30649249 -83.99609375 254.91015625 C-84.02190018 254.1703804 -84.0477066 253.43060455 -84.07429504 252.66841125 C-84.07645091 248.67043358 -83.66324894 246.95990057 -81.13354492 243.7980957 C-78.28413006 241.59248169 -77.05778212 241.08515672 -73.5078125 241.140625 C-72.6828125 241.12773437 -71.8578125 241.11484375 -71.0078125 241.1015625 C-67.3126487 242.08309038 -65.88300549 243.79693906 -63.5078125 246.765625 C-63.06880822 249.68948791 -62.91822353 252.00603445 -63.01953125 254.91015625 C-63.03014336 256.0648365 -63.03014336 256.0648365 -63.04096985 257.24284363 C-63.06884325 259.68894803 -63.13156113 262.13271884 -63.1953125 264.578125 C-63.22040482 266.24150327 -63.24321637 267.90491762 -63.26367188 269.56835938 C-63.31864579 273.63500657 -63.40486323 277.69992089 -63.5078125 281.765625 C-62.87998367 281.75452194 -62.25215485 281.74341888 -61.6053009 281.73197937 C-55.06798536 281.62132019 -48.53093604 281.54593028 -41.99291992 281.4909668 C-39.55335686 281.46583004 -37.11386905 281.43171554 -34.67456055 281.38842773 C-31.16696604 281.32774271 -27.6603676 281.299406 -24.15234375 281.27734375 C-23.06258743 281.25153732 -21.97283112 281.2257309 -20.85005188 281.19914246 C-13.27179794 281.19633848 -13.27179794 281.19633848 -9.3215332 284.13989258 C-7.36344382 286.97462824 -6.82952615 288.35529872 -6.8828125 291.765625 C-6.86992187 292.590625 -6.85703125 293.415625 -6.84375 294.265625 C-7.83270956 297.98876686 -9.49450045 299.38857196 -12.5078125 301.765625 C-15.4878999 302.46909505 -18.37906224 302.39907419 -21.42895508 302.33325195 C-22.76141266 302.33434715 -22.76141266 302.33434715 -24.12078857 302.33546448 C-27.04860096 302.33198894 -29.97481029 302.2931295 -32.90234375 302.25390625 C-34.93543122 302.24457801 -36.96852995 302.23746195 -39.00163269 302.23246765 C-44.34649822 302.21339887 -49.69068179 302.16429859 -55.03527832 302.10894775 C-61.45122942 302.04874829 -67.86740887 302.02583851 -74.28356171 301.99668121 C-84.02545259 301.94823404 -93.76584786 301.8524174 -103.5078125 301.765625 C-103.5078125 331.465625 -103.5078125 361.165625 -103.5078125 391.765625 C-65.2278125 391.765625 -26.9478125 391.765625 12.4921875 391.765625 C12.4921875 380.215625 12.4921875 368.665625 12.4921875 356.765625 C18.11662171 351.14119079 18.11662171 351.14119079 23.97558594 351.13793945 C25.26752869 351.12475174 26.55947144 351.11156403 27.89056396 351.09797668 C29.29423177 351.10806296 30.69789794 351.11837855 32.1015625 351.12890625 C33.55260751 351.12085811 35.0036407 351.11033537 36.45465088 351.09745789 C40.27192302 351.06893347 44.08865225 351.06832589 47.90600586 351.07531738 C54.00043398 351.08264165 60.09468579 351.05102772 66.18897247 351.01286888 C68.30545371 351.00409734 70.42154528 351.00928944 72.5380249 351.01643372 C83.54832009 350.98494246 92.96964024 350.39800291 101.4921875 342.765625 C106.63578418 336.92662364 107.26754706 330.7437093 106.98046875 323.1484375 C106.0805884 316.91406642 103.51285392 312.73447946 99.0546875 308.390625 C91.67852104 303.71305603 85.40046547 302.64317085 76.71826172 302.63964844 C74.76120804 302.63393829 74.76120804 302.63393829 72.76461792 302.62811279 C71.73370844 302.627822 71.73370844 302.627822 70.6819725 302.62752533 C67.00794413 302.6231798 63.33408592 302.59209679 59.66015625 302.56640625 C55.00108419 302.53601215 50.34228616 302.5133134 45.68310547 302.51513672 C41.90106679 302.51592413 38.11984243 302.49256305 34.33801651 302.4532547 C32.90198554 302.44281021 31.46586045 302.44125935 30.02981186 302.44890594 C28.02229541 302.45853745 26.01470335 302.43455861 24.00732422 302.40917969 C22.8670578 302.40553406 21.72679138 302.40188843 20.55197144 302.39813232 C16.54826893 301.57050161 15.04094304 299.88964265 12.4921875 296.765625 C11.828125 294.265625 11.828125 294.265625 11.8671875 291.765625 C11.85429687 290.940625 11.84140625 290.115625 11.828125 289.265625 C12.8012718 285.60201352 14.57838686 284.14710254 17.4921875 281.765625 C20.89123535 281.13070679 20.89123535 281.13070679 24.83007812 281.11865234 C25.91175766 281.10550995 25.91175766 281.10550995 27.01528931 281.09210205 C29.3936228 281.07014451 31.77008577 281.08465807 34.1484375 281.1015625 C35.81409051 281.09819033 37.47974111 281.09333437 39.14538574 281.08706665 C42.63915397 281.07969784 46.1322828 281.09038953 49.62597656 281.11376953 C54.0698547 281.14208093 58.51221105 281.12596738 62.9560318 281.09590721 C66.40001499 281.07768186 69.84364864 281.08366419 73.28764343 281.09654617 C74.92364182 281.09984761 76.55967349 281.09590995 78.19563293 281.08414841 C93.77553799 280.9968047 105.59423922 284.39957581 117.1640625 295.34765625 C127.10515981 305.87804541 129.06180587 317.82982858 128.83203125 331.625 C128.28745602 343.96267949 122.09246731 353.65711875 113.3046875 361.953125 C105.7955325 368.06284656 97.08513372 371.8990815 87.43847656 371.87915039 C86.21751282 371.87907486 84.99654907 371.87899933 83.73858643 371.87892151 C82.42493103 371.87376022 81.11127563 371.86859894 79.7578125 371.86328125 C78.3958949 371.86141521 77.03397662 371.85999218 75.67205811 371.85899353 C72.09476861 371.85518303 68.51751998 371.84536532 64.94024658 371.83428955 C61.28699293 371.82404384 57.63373264 371.81948915 53.98046875 371.81445312 C46.81768758 371.80374169 39.65494848 371.78615682 32.4921875 371.765625 C32.4921875 378.365625 32.4921875 384.965625 32.4921875 391.765625 C39.71478069 391.64678961 46.93725264 391.52250524 54.15966797 391.39331055 C56.61341852 391.35016875 59.06719509 391.30848035 61.52099609 391.26831055 C65.06095195 391.21010177 68.60077931 391.14655667 72.140625 391.08203125 C73.7693605 391.05696251 73.7693605 391.05696251 75.43099976 391.03138733 C81.08276361 390.92303099 86.65104978 390.64122887 92.26895142 390.00376892 C102.17539728 388.94263111 102.17539728 388.94263111 106.4921875 391.640625 C109.7933084 395.14806596 109.90328719 397.83272442 109.828125 402.5078125 C109.4921875 404.765625 109.4921875 404.765625 107.4921875 407.703125 C99.80955893 412.98493214 90.65850687 412.03030422 81.7109375 411.9609375 C80.28747762 411.95720106 78.86401514 411.95435707 77.44055176 411.95236206 C73.71859466 411.94477525 69.99679703 411.92517019 66.27490234 411.9029541 C62.46714433 411.88238814 58.65936021 411.8733375 54.8515625 411.86328125 C47.3983653 411.84191889 39.94529886 411.80784385 32.4921875 411.765625 C32.38761102 416.92651269 32.34894606 422.08223386 32.37011719 427.24414062 C32.36817583 428.9978327 32.34853355 430.75160112 32.31054688 432.50488281 C31.66078047 442.53765464 31.66078047 442.53765464 35.6730957 451.14575195 C38.27846818 452.75160188 38.27846818 452.75160188 41.00854492 453.73217773 C46.25618813 455.91572966 48.6972698 461.16432444 51.1171875 466.0390625 C53.85281606 473.45323764 53.75758563 481.74955648 51.390625 489.26171875 C48.53142264 495.38530456 45.25133493 500.15719653 39.4921875 503.765625 C38.87085938 504.17554688 38.24953125 504.58546875 37.609375 505.0078125 C30.62976512 508.85588639 22.23173705 509.01617024 14.4921875 507.765625 C6.91594487 505.36464329 0.74458458 501.55256339 -3.5078125 494.765625 C-3.91773438 494.14429688 -4.32765625 493.52296875 -4.75 492.8828125 C-8.59807389 485.90320262 -8.75835774 477.50517455 -7.5078125 469.765625 C-5.12592434 462.24963161 -1.28408885 455.9730261 5.4921875 451.765625 C7.4721875 450.775625 9.4521875 449.785625 11.4921875 448.765625 C11.8221875 436.555625 12.1521875 424.345625 12.4921875 411.765625 C6.57889526 411.80490112 6.57889526 411.80490112 0.54614258 411.8449707 C-12.46570514 411.92774735 -25.47754874 411.98327448 -38.48958874 412.02468586 C-46.38032133 412.05046601 -54.27080447 412.08561257 -62.16137695 412.14282227 C-69.03893729 412.19266346 -75.91631698 412.2249174 -82.7940529 412.23606747 C-86.43576154 412.24258518 -90.07695336 412.25789853 -93.71849632 412.29427528 C-97.78416224 412.33455921 -101.84893009 412.33557401 -105.91479492 412.33325195 C-107.12176529 412.35122833 -108.32873566 412.36920471 -109.57228088 412.38772583 C-114.38581384 412.35789611 -117.55522949 412.32153981 -121.75939941 409.86804199 C-124.28216794 405.39159418 -124.16981811 401.61968748 -124.07543945 396.55932617 C-124.07616959 395.53447113 -124.07689972 394.50961609 -124.07765198 393.45370483 C-124.07417287 390.07145987 -124.03529436 386.69059768 -123.99609375 383.30859375 C-123.98676683 380.96162163 -123.97965015 378.61463976 -123.97465515 376.26765442 C-123.95557614 370.09425927 -123.90646641 363.9214535 -123.85113525 357.74829102 C-123.79996294 351.44750949 -123.77714535 345.14663261 -123.75195312 338.84570312 C-123.69834948 326.48541831 -123.61302485 314.12557069 -123.5078125 301.765625 C-130.66174984 301.65495496 -137.81301987 301.62234685 -144.96777344 301.64355469 C-147.40047089 301.64161009 -149.8332224 301.62190893 -152.265625 301.58398438 C-155.76728232 301.53248941 -159.26378096 301.54523267  -162.765625 301.5703125 C-163.85022003 301.54057343 -164.93481506 301.51083435 -166.05227661 301.48019409 C-169.1721654 301.53908664 -171.57565091 301.68775808 -174.5078125 302.765625 C-176.60187982 305.14656178 -177.89646688 307.41082474 -179.22360229 310.28445435 C-182.43080131 316.480954 -189.23190575 319.44998645 -195.5078125 321.765625 C-206.06298912 323.17955832 -214.66191036 322.03262777 -223.5078125 315.765625 C-225.99319472 313.652547 -227.77884719 311.52509944 -229.5078125 308.765625 C-229.91773438 308.14429688 -230.32765625 307.52296875 -230.75 306.8828125 C-234.59807389 299.90320262 -234.75835774 291.50517455 -233.5078125 283.765625 C-231.10683079 276.18938237 -227.29475089 270.01802208 -220.5078125 265.765625 C-219.88648438 265.35570312 -219.26515625 264.94578125 -218.625 264.5234375 C-211.64539012 260.67536361 -203.24736205 260.51507976 -195.5078125 261.765625 C-187.99181911 264.14751316 -181.7152136 267.98934865 -177.5078125 274.765625 C-176.5178125 276.745625 -175.5278125 278.725625 -174.5078125 280.765625 C-157.6778125 281.095625 -140.8478125 281.425625 -123.5078125 281.765625 C-123.5078125 261.965625 -123.5078125 242.165625 -123.5078125 221.765625 C-135.9446875 221.70375 -135.9446875 221.70375 -148.6328125 221.640625 C-152.54471436 221.58237549 -152.54471436 221.58237549 -156.53564453 221.52294922 C-158.61233092 221.53479434 -160.68900094 221.55033366 -162.765625 221.5703125 C-163.83611084 221.54074463 -164.90659668 221.51117676 -166.00952148 221.48071289 C-169.14720139 221.53861448 -171.55982084 221.68193892 -174.5078125 222.765625 C-176.60187982 225.14656178 -177.89646688 227.41082474 -179.22360229 230.28445435 C-182.43080131 236.480954 -189.23190575 239.44998645 -195.5078125 241.765625 C-206.06298912 243.17955832 -214.66191036 242.03262777 -223.5078125 235.765625 C-225.99319472 233.652547 -227.77884719 231.52509944 -229.5078125 228.765625 C-229.91773438 228.14429688 -230.32765625 227.52296875 -230.75 226.8828125 C-234.59807389 219.90320262 -234.75835774 211.50517455 -233.5078125 203.765625 C-231.10683079 196.18938237 -227.29475089 190.01802208 -220.5078125 185.765625 C-219.88648438 185.35570312 -219.26515625 184.94578125 -218.625 184.5234375 C-211.64539012 180.67536361 -203.24736205 180.51507976 -195.5078125 181.765625 C-187.99181911 184.14751316 -181.7152136 187.98934865 -177.5078125 194.765625 C-176.5178125 196.745625 -175.5278125 198.725625 -174.5078125 200.765625 C-157.6778125 201.095625 -140.8478125 201.425625 -123.5078125 201.765625 C-123.56582031 194.24394531 -123.62382813 186.72226563 -123.68359375 178.97265625 C-123.70913856 174.21026492 -123.73320799 169.44795795 -123.75195312 164.68554688 C-123.78185378 157.12474039 -123.81724299 149.56423637 -123.88500977 142.00366211 C-123.93929799 135.90878165 -123.96922675 129.8142255 -123.98219872 123.71912193 C-123.99144419 121.39264507 -124.00949833 119.06618615 -124.03646278 116.73984718 C-124.0727093 113.4834812 -124.07775949 110.22845877 -124.07543945 106.97192383 C-124.09341583 106.00807266 -124.11139221 105.0442215 -124.12991333 104.05116272 C-124.09642871 99.71361632 -123.90244766 97.38462473 -121.52990723 93.66320801 C-117.42074697 91.08305305 -114.3477606 91.09524504 -109.58666992 91.19799805 C-108.69836487 91.19726791 -107.81005981 91.19653778 -106.89483643 91.19578552 C-103.96702404 91.19926106 -101.04081471 91.2381205 -98.11328125 91.27734375 C-96.08019378 91.28667199 -94.04709505 91.29378805 -92.01399231 91.29878235 C-86.66912678 91.31785113 -81.32494321 91.36695141 -75.98034668 91.42230225 C-70.524101 91.473497 -65.06774487 91.49629691 -59.61132812 91.52148438 C-48.90985702 91.57506985 -38.20889152 91.66038163 -27.5078125 91.765625 C-27.40323602 86.60473731 -27.36457106 81.44901614 -27.38574219 76.28710938 C-27.38380083 74.5334173 -27.36415855 72.77964888 -27.32617188 71.02636719 C-26.67640547 60.99359536 -26.67640547 60.99359536 -30.6887207 52.38549805 C-33.29409318 50.77964812 -33.29409318 50.77964812 -36.02416992 49.79907227 C-41.27181313 47.61552034 -43.7128948 42.36692556 -46.1328125 37.4921875 C-48.86844106 30.07801236 -48.77321063 21.78169352 -46.40625 14.26953125 C-43.54704764 8.14594544 -40.26695993 3.37405347 -34.5078125 -0.234375 C-33.88648438 -0.64429688 -33.26515625 -1.05421875 -32.625 -1.4765625 C-22.455808 -7.08315125 -9.72162164 -5.63801363 0 0 Z M-26.5078125 21.765625 C-27.20628375 24.6053114 -27.20628375 26.9259386 -26.5078125 29.765625 C-24.51859364 32.7494533 -23.12278682 34.36839341 -19.5703125 35.2421875 C-15.64717758 35.52453433 -13.83668879 34.98487586 -10.5078125 32.765625 C-8.28856164 29.43674871 -7.74890317 27.62625992 -8.03125 23.703125 C-8.90504409 20.15065068 -10.5239842 18.75484386 -13.5078125 16.765625 C-19.32444453 15.33492115 -23.11596156 16.67784859 -26.5078125 21.765625 Z M239.4921875 172.765625 C238.79371625 175.6053114 238.79371625 177.9259386 239.4921875 180.765625 C241.48140636 183.7494533 242.87721318 185.36839341 246.4296875 186.2421875 C250.35282242 186.52453433 252.16331121 185.98487586 255.4921875 183.765625 C257.71143836 180.43674871 258.25109683 178.62625992 257.96875 174.703125 C257.09495591 171.15065068 255.4760158 169.75484386 252.4921875 167.765625 C246.67555547 166.33492115 242.88403844 167.67784859 239.4921875 172.765625 Z M-212.5078125 207.765625 C-213.20628375 210.6053114 -213.20628375 212.9259386 -212.5078125 215.765625 C-210.51859364 218.7494533 -209.12278682 220.36839341 -205.5703125 221.2421875 C-201.64717758 221.52453433 -199.83668879 220.98487586 -196.5078125 218.765625 C-194.28856164 215.43674871 -193.74890317 213.62625992 -194.03125 209.703125 C-194.90504409 206.15065068 -196.5239842 204.75484386 -199.5078125 202.765625 C-205.32444453 201.33492115 -209.11596156 202.67784859 -212.5078125 207.765625 Z M-212.5078125 287.765625 C-213.20628375 290.6053114 -213.20628375 292.9259386 -212.5078125 295.765625 C-210.51859364 298.7494533 -209.12278682 300.36839341 -205.5703125 301.2421875 C-201.64717758 301.52453433 -199.83668879 300.98487586 -196.5078125 298.765625 C-194.28856164 295.43674871 -193.74890317 293.62625992 -194.03125 289.703125 C-194.90504409 286.15065068 -196.5239842 284.75484386 -199.5078125 282.765625 C-205.32444453 281.33492115 -209.11596156 282.67784859 -212.5078125 287.765625 Z M239.4921875 322.765625 C238.79371625 325.6053114 238.79371625 327.9259386 239.4921875 330.765625 C241.48140636 333.7494533 242.87721318 335.36839341 246.4296875 336.2421875 C250.35282242 336.52453433 252.16331121 335.98487586 255.4921875 333.765625 C257.71143836 330.43674871 258.25109683 328.62625992 257.96875 324.703125 C257.09495591 321.15065068 255.4760158 319.75484386 252.4921875 317.765625 C246.67555547 316.33492115 242.88403844 317.67784859 239.4921875 322.765625 Z M13.4921875 473.765625 C12.79371625 476.6053114 12.79371625 478.9259386 13.4921875 481.765625 C15.48140636 484.7494533 16.87721318 486.36839341 20.4296875 487.2421875 C24.35282242 487.52453433 26.16331121 486.98487586 29.4921875 484.765625 C31.71143836 481.43674871 32.25109683 479.62625992 31.96875 475.703125 C31.09495591 472.15065068 29.4760158 470.75484386 26.4921875 468.765625 C20.67555547 467.33492115 16.88403844 468.67784859 13.4921875 473.765625 Z " fill="#2f46fa" transform="translate(233.5078125,4.234375)"/>
<path d="M0 0 C1.08167953 -0.0131424 1.08167953 -0.0131424 2.18521118 -0.02655029 C4.56354468 -0.04850783 6.94000765 -0.03399428 9.31835938 -0.01708984 C10.98401238 -0.02046202 12.64966299 -0.02531797 14.31530762 -0.03158569 C17.80907584 -0.03895451 21.30220467 -0.02826281 24.79589844 -0.00488281 C29.23977657 0.02342858 33.68213293 0.00731504 38.12595367 -0.02274513 C41.56993687 -0.04097049 45.01357052 -0.03498816 48.45756531 -0.02210617 C50.0935637 -0.01880473 51.72959537 -0.0227424 53.36555481 -0.03450394 C68.94545987 -0.12184764 80.76416109 3.28092346 92.33398438 14.22900391 C102.27508168 24.75939307 104.23172775 36.71117624 104.00195312 50.50634766 C103.45737789 62.84402715 97.26238919 72.53846641 88.47460938 80.83447266 C81.75394411 86.3026503 73.12473707 90.77814508 64.34674072 90.76722717 C63.0637484 90.76928917 63.0637484 90.76928917 61.75483704 90.77139282 C60.82479355 90.76779755 59.89475006 90.76420227 58.93652344 90.76049805 C57.9508287 90.76064407 56.96513397 90.7607901 55.9495697 90.76094055 C52.69226886 90.76024402 49.43502523 90.75246368 46.17773438 90.74462891 C43.91900667 90.74276381 41.66027855 90.74134034 39.40155029 90.74034119 C33.45691816 90.73652325 27.51231047 90.7266991 21.56768799 90.71563721 C15.5015089 90.70540756 9.43532586 90.70084023 3.36914062 90.69580078 C-8.53321386 90.68507622 -20.43555021 90.66800844 -32.33789062 90.64697266 C-32.31170654 91.68104248 -32.28552246 92.7151123 -32.25854492 93.78051758 C-32.1678264 97.62876625 -32.11056403 101.47692105 -32.06323242 105.32592773 C-32.03813716 106.98950104 -32.00405266 108.65296462 -31.96069336 110.31616211 C-31.89981603 112.71186419 -31.87163294 115.10610517 -31.84960938 117.50244141 C-31.82380295 118.24221725 -31.79799652 118.9819931 -31.77140808 119.7441864 C-31.76925222 123.74216408 -32.18245418 125.45269708 -34.7121582 128.61450195 C-37.56157307 130.82011597 -38.787921 131.32744093 -42.33789062 131.27197266 C-43.16289062 131.28486328 -43.98789063 131.29775391 -44.83789062 131.31103516 C-48.65500007 130.29711546 -49.95178774 128.80971906 -52.33789062 125.64697266 C-53.08932254 121.90026989 -53.03861267 118.20810669 -53.00195312 114.39697266 C-53.00673676 113.30610352 -53.01152039 112.21523437 -53.01644897 111.09130859 C-53.01984675 108.788234 -53.01065306 106.48511111 -52.98974609 104.18212891 C-52.96298122 100.65889848 -52.98950064 97.1388541 -53.02148438 93.61572266 C-53.01818026 91.3761323 -53.01177399 89.13654392 -53.00195312 86.89697266 C-53.01207428 85.84477539 -53.02219543 84.79257813 -53.03262329 83.70849609 C-53.00898209 82.23171387 -53.00898209 82.23171387 -52.98486328 80.72509766 C-52.98088531 79.86303711 -52.97690735 79.00097656 -52.97280884 78.11279297 C-51.99238421 74.30513569 -50.5256892 72.93597948 -47.33789062 70.64697266 C-43.95024585 69.92746699 -40.63536205 69.97692181 -37.18261719 70.01928711 C-36.16246521 70.01201599 -35.14231323 70.00474487 -34.09124756 69.99725342 C-30.71998425 69.97865747 -27.34977956 69.99473471 -23.97851562 70.01025391 C-21.63066664 70.00221312 -19.28282494 69.99169464 -16.93499756 69.97880554 C-10.75043421 69.95022858 -4.56620567 69.94968466 1.6184082 69.95666504 C11.50287583 69.96398027 21.38723423 69.9325509 31.27161407 69.89421654 C34.71759301 69.88539191 38.16333566 69.89065923 41.60931396 69.89778137 C43.73596256 69.89439467 45.86261061 69.89064475 47.98925781 69.88647461 C48.94022339 69.89216965 49.89118896 69.89786469 50.87097168 69.9037323 C60.76908498 69.86028346 69.10270078 68.41681053 76.66210938 61.64697266 C81.80570606 55.80797129 82.43746893 49.62505695 82.15039062 42.02978516 C81.25051027 35.79541408 78.68277579 31.61582712 74.22460938 27.27197266 C66.84844292 22.59440368 60.57038735 21.5245185 51.88818359 21.52099609 C49.93112991 21.51528595 49.93112991 21.51528595 47.93453979 21.50946045 C46.90363031 21.50916965 46.90363031 21.50916965 45.85189438 21.50887299 C42.177866 21.50452745 38.5040078 21.47344445 34.83007812 21.44775391 C30.17100607 21.41735981 25.51220804 21.39466106 20.85302734 21.39648438 C17.07098866 21.39727179 13.2897643 21.3739107 9.50793839 21.33460236 C8.07190742 21.32415787 6.63578232 21.32260701 5.19973373 21.3302536 C3.19221728 21.33988511 1.18462522 21.31590626 -0.82275391 21.29052734 C-1.96302032 21.28688171 -3.10328674 21.28323608 -4.27810669 21.27947998 C-8.28180919 20.45184927 -9.78913508 18.77099031 -12.33789062 15.64697266 C-13.00195312 13.14697266 -13.00195312 13.14697266 -12.96289062 10.64697266 C-12.97578125 9.82197266 -12.98867187 8.99697266 -13.00195312 8.14697266 C-11.20638112 1.38717216 -6.36075048 0.01946646 0 0 Z " fill="#2f46fa" transform="translate(258.337890625,135.35302734375)"/>
<path d="M0 0 C0.825 -0.01289063 1.65 -0.02578125 2.5 -0.0390625 C5.23823783 0.68828192 6.98137479 1.68537775 8.95263672 3.73184204 C11.36668708 8.09535061 10.48847269 13.60501933 10.3125 18.4375 C10.28994141 19.60732422 10.26738281 20.77714844 10.24414062 21.98242188 C10.18532091 24.86458769 10.10317141 27.74413681 10 30.625 C10.62782883 30.61389694 11.25565765 30.60279388 11.9025116 30.59135437 C18.43982714 30.48069519 24.97687646 30.40530528 31.51489258 30.3503418 C33.95445564 30.32520504 36.39394345 30.29109054 38.83325195 30.24780273 C42.34084646 30.18711771 45.8474449 30.158781 49.35546875 30.13671875 C50.44522507 30.11091232 51.53498138 30.0851059 52.65776062 30.05851746 C60.23601456 30.05571348 60.23601456 30.05571348 64.1862793 32.99926758 C66.14436868 35.83400324 66.67828635 37.21467372 66.625 40.625 C66.63789063 41.45 66.65078125 42.275 66.6640625 43.125 C65.69804444 46.76177387 63.86816339 48.24040881 61 50.625 C57.92675781 51.25991821 57.92675781 51.25991821 54.453125 51.27197266 C52.49584473 51.29561386 52.49584473 51.29561386 50.49902344 51.31973267 C49.08267367 51.31078261 47.66633164 51.30052755 46.25 51.2890625 C44.78938392 51.29243321 43.32877057 51.29728795 41.86816406 51.30355835 C38.81157648 51.3109179 35.75572101 51.30025528 32.69921875 51.27685547 C28.78808316 51.24836645 24.87866302 51.2647756 20.96759033 51.29471779 C17.95283159 51.31281667 14.93847722 51.30702127 11.92370605 51.29407883 C10.48205358 51.29075188 9.04036397 51.29480693 7.59875488 51.30647659 C5.58146908 51.31922403 3.56405394 51.29633735 1.546875 51.27197266 C0.40057617 51.26799469 -0.74572266 51.26401672 -1.92675781 51.25991821 C-5.97801265 50.42294692 -7.47667422 48.84487166 -10 45.625 C-10.63491821 43.53881836 -10.63491821 43.53881836 -10.64697266 41.46484375 C-10.66273346 40.68052979 -10.67849426 39.89621582 -10.69473267 39.08813477 C-10.68461151 38.25467529 -10.67449036 37.42121582 -10.6640625 36.5625 C-10.66884613 35.69359131 -10.67362976 34.82468262 -10.67855835 33.92944336 C-10.68195225 32.09714949 -10.67278544 30.26479465 -10.65185547 28.43261719 C-10.62508023 25.63338781 -10.65161803 22.83816767 -10.68359375 20.0390625 C-10.68028956 18.25519951 -10.67388313 16.47133901 -10.6640625 14.6875 C-10.67418365 13.85404053 -10.68430481 13.02058105 -10.69473267 12.16186523 C-10.6075289 7.82229355 -10.39201552 6.12214148 -7.61474609 2.60009766 C-4.77496756 0.45501752 -3.51106526 -0.05486039 0 0 Z " fill="#2f46fa" transform="translate(160,325.375)"/>
<path d="M0 0 C2.97672584 1.77280561 5.42804007 3.85608015 7 7 C7.3751455 11.97067782 7.15878799 15.05151502 4 19 C0.57823311 21.56632517 -2.84640421 21.36435051 -7 21 C-9.82275936 19.74544028 -11.46288541 18.71615278 -13.3125 16.25 C-14.32815881 12.9260257 -14.41796486 10.46313738 -14 7 C-10.39752262 1.00033506 -6.9151493 -0.69151493 0 0 Z " fill="#2f46fa" transform="translate(375,372)"/>
</svg>
